<svg width="63" height="62" viewBox="0 0 63 62" fill="none" xmlns="http://www.w3.org/2000/svg">
<ellipse cx="31.5" cy="31" rx="31.5" ry="31" fill="#D9D9D9"/>
<path d="M19.6321 35V27.7273H21.1697V33.7322H24.2876V35H19.6321ZM27.742 35.1065C27.1904 35.1065 26.7134 34.9893 26.3109 34.755C25.9108 34.5182 25.6019 34.1892 25.3841 33.7678C25.1663 33.344 25.0574 32.8527 25.0574 32.294C25.0574 31.7306 25.1663 31.2382 25.3841 30.8168C25.6019 30.393 25.9108 30.0639 26.3109 29.8295C26.7134 29.5928 27.1904 29.4744 27.742 29.4744C28.2936 29.4744 28.7695 29.5928 29.1696 29.8295C29.572 30.0639 29.8822 30.393 30.1 30.8168C30.3178 31.2382 30.4267 31.7306 30.4267 32.294C30.4267 32.8527 30.3178 33.344 30.1 33.7678C29.8822 34.1892 29.572 34.5182 29.1696 34.755C28.7695 34.9893 28.2936 35.1065 27.742 35.1065ZM27.7491 33.9347C28.0001 33.9347 28.2096 33.8636 28.3777 33.7216C28.5458 33.5772 28.6724 33.3807 28.7576 33.1321C28.8452 32.8835 28.889 32.6006 28.889 32.2834C28.889 31.9661 28.8452 31.6832 28.7576 31.4347C28.6724 31.1861 28.5458 30.9896 28.3777 30.8452C28.2096 30.7008 28.0001 30.6286 27.7491 30.6286C27.4958 30.6286 27.2827 30.7008 27.1099 30.8452C26.9395 30.9896 26.8104 31.1861 26.7228 31.4347C26.6376 31.6832 26.595 31.9661 26.595 32.2834C26.595 32.6006 26.6376 32.8835 26.7228 33.1321C26.8104 33.3807 26.9395 33.5772 27.1099 33.7216C27.2827 33.8636 27.4958 33.9347 27.7491 33.9347ZM33.8677 37.1591C33.3777 37.1591 32.9574 37.0916 32.6071 36.9567C32.2591 36.8241 31.9821 36.643 31.7761 36.4134C31.5701 36.1837 31.4364 35.9257 31.3748 35.6392L32.774 35.451C32.8166 35.5599 32.8841 35.6617 32.9764 35.7564C33.0687 35.8511 33.1906 35.9268 33.3422 35.9837C33.496 36.0429 33.6831 36.0724 33.9032 36.0724C34.2323 36.0724 34.5034 35.992 34.7164 35.831C34.9319 35.6723 35.0396 35.406 35.0396 35.032V34.0341H34.9757C34.9094 34.1856 34.81 34.3288 34.6774 34.4638C34.5448 34.5987 34.3743 34.7088 34.166 34.794C33.9577 34.8793 33.7091 34.9219 33.4203 34.9219C33.0107 34.9219 32.6378 34.8272 32.3017 34.6378C31.9679 34.446 31.7015 34.1536 31.5027 33.7607C31.3062 33.3653 31.2079 32.8658 31.2079 32.2621C31.2079 31.6442 31.3085 31.1281 31.5098 30.7138C31.711 30.2995 31.9785 29.9893 32.3123 29.7834C32.6485 29.5774 33.0166 29.4744 33.4167 29.4744C33.7221 29.4744 33.9778 29.5265 34.1838 29.6307C34.3897 29.7325 34.5555 29.8603 34.6809 30.0142C34.8088 30.1657 34.907 30.3149 34.9757 30.4616H35.0325V29.5455H36.5346V35.0533C36.5346 35.5173 36.421 35.9055 36.1937 36.218C35.9664 36.5305 35.6516 36.7649 35.2491 36.9212C34.849 37.0798 34.3886 37.1591 33.8677 37.1591ZM33.8997 33.7855C34.1435 33.7855 34.3495 33.7251 34.5176 33.6044C34.688 33.4813 34.8182 33.3061 34.9082 33.0788C35.0005 32.8492 35.0467 32.5746 35.0467 32.255C35.0467 31.9354 35.0017 31.6584 34.9118 31.424C34.8218 31.1873 34.6916 31.0038 34.5211 30.8736C34.3507 30.7434 34.1435 30.6783 33.8997 30.6783C33.6511 30.6783 33.4416 30.7457 33.2711 30.8807C33.1007 31.0133 32.9717 31.1979 32.8841 31.4347C32.7965 31.6714 32.7527 31.9448 32.7527 32.255C32.7527 32.5698 32.7965 32.8421 32.8841 33.0717C32.974 33.299 33.103 33.4754 33.2711 33.6009C33.4416 33.724 33.6511 33.7855 33.8997 33.7855ZM40.2029 35.1065C39.6513 35.1065 39.1743 34.9893 38.7718 34.755C38.3717 34.5182 38.0628 34.1892 37.845 33.7678C37.6272 33.344 37.5183 32.8527 37.5183 32.294C37.5183 31.7306 37.6272 31.2382 37.845 30.8168C38.0628 30.393 38.3717 30.0639 38.7718 29.8295C39.1743 29.5928 39.6513 29.4744 40.2029 29.4744C40.7546 29.4744 41.2304 29.5928 41.6305 29.8295C42.033 30.0639 42.3431 30.393 42.5609 30.8168C42.7787 31.2382 42.8876 31.7306 42.8876 32.294C42.8876 32.8527 42.7787 33.344 42.5609 33.7678C42.3431 34.1892 42.033 34.5182 41.6305 34.755C41.2304 34.9893 40.7546 35.1065 40.2029 35.1065ZM40.21 33.9347C40.461 33.9347 40.6705 33.8636 40.8386 33.7216C41.0067 33.5772 41.1333 33.3807 41.2186 33.1321C41.3062 32.8835 41.35 32.6006 41.35 32.2834C41.35 31.9661 41.3062 31.6832 41.2186 31.4347C41.1333 31.1861 41.0067 30.9896 40.8386 30.8452C40.6705 30.7008 40.461 30.6286 40.21 30.6286C39.9567 30.6286 39.7437 30.7008 39.5708 30.8452C39.4004 30.9896 39.2714 31.1861 39.1838 31.4347C39.0985 31.6832 39.0559 31.9661 39.0559 32.2834C39.0559 32.6006 39.0985 32.8835 39.1838 33.1321C39.2714 33.3807 39.4004 33.5772 39.5708 33.7216C39.7437 33.8636 39.9567 33.9347 40.21 33.9347Z" fill="black"/>
</svg>
